<?xml version="1.0" encoding="utf-8"?>
<!-- Svg Vector Icons : http://www.onlinewebfonts.com/icon -->
<!DOCTYPE svg PUBLIC "-//W3C//DTD SVG 1.1//EN" "http://www.w3.org/Graphics/SVG/1.1/DTD/svg11.dtd">
<svg version="1.1" xmlns="http://www.w3.org/2000/svg" xmlns:xlink="http://www.w3.org/1999/xlink" x="0px" y="0px" viewBox="0 0 256 256" enable-background="new 0 0 256 256" xml:space="preserve">
<metadata> Svg Vector Icons : http://www.onlinewebfonts.com/icon </metadata>
<g><g><path fill="#000000" d="M157.9,57.5c3.3,0.2,3.9,0.2,5.5,0.4v0.6L159,80.8h-9.4c-4.7,0-9.9,3.4-9.8,11.8c0.1,9.4,0,7.9,0,11.8v11.8h23.6l-5.9,23.6h-17.7v59h-23.6v-59H92.6v-23.6h23.6V92.6c0-9.2-2.2-19.8,4.5-26.1c6.7-6.2,14-9.3,27.2-9.3C151.2,57.2,154.6,57.3,157.9,57.5z M246,57.2v141.6c0,26.1-21.1,47.2-47.2,47.2H57.2C31.1,246,10,224.9,10,198.8V57.2C10,31.2,31.1,10,57.2,10h141.6C224.9,10,246,31.2,246,57.2z M222.4,69c0-19.6-15.9-35.4-35.4-35.4H69c-19.6,0-35.4,15.8-35.4,35.4v118c0,19.6,15.8,35.4,35.4,35.4h118c19.6,0,35.4-15.8,35.4-35.4L222.4,69L222.4,69z"/></g></g>
</svg>