<?xml version="1.0" encoding="utf-8"?>
<!-- Svg Vector Icons : http://www.onlinewebfonts.com/icon -->
<!DOCTYPE svg PUBLIC "-//W3C//DTD SVG 1.1//EN" "http://www.w3.org/Graphics/SVG/1.1/DTD/svg11.dtd">
<svg version="1.1" xmlns="http://www.w3.org/2000/svg" xmlns:xlink="http://www.w3.org/1999/xlink" x="0px" y="0px" viewBox="0 0 256 256" enable-background="new 0 0 256 256" xml:space="preserve">
<metadata> Svg Vector Icons : http://www.onlinewebfonts.com/icon </metadata>
<g> <path fill="#000000" d="M128,219.8c7.2,0,13.1,5.9,13.1,13.1c0,7.2-5.9,13.1-13.1,13.1H75.6C39.4,246,10,216.7,10,180.4V75.6 C10,39.4,39.4,10,75.6,10h104.9c36.2,0,65.6,29.4,65.6,65.6v104.9c0,36.2-29.3,65.6-65.6,65.6c-7.2,0-13.1-5.9-13.1-13.1 c0-7.2,5.9-13.1,13.1-13.1c21.7,0,39.3-17.6,39.3-39.3V75.6c0-21.7-17.6-39.3-39.3-39.3H75.6c-21.7,0-39.3,17.6-39.3,39.3v104.9 c0,21.7,17.6,39.3,39.3,39.3H128z M128,187c-32.6,0-59-26.4-59-59s26.4-59,59-59s59,26.4,59,59S160.6,187,128,187z M128,160.8 c18.1,0,32.8-14.7,32.8-32.8c0-18.1-14.7-32.8-32.8-32.8c0,0,0,0,0,0c-18.1,0-32.8,14.7-32.8,32.8 C95.2,146.1,109.9,160.8,128,160.8z M187,82.1c-7.2,0-13.1-5.9-13.1-13.1s5.9-13.1,13.1-13.1s13.1,5.9,13.1,13.1 S194.2,82.1,187,82.1L187,82.1z"/></g>
</svg>